<?xml version="1.0" encoding="UTF-8" standalone="no"?>
<svg
   xmlns:dc="http://purl.org/dc/elements/1.1/"
   xmlns:cc="http://creativecommons.org/ns#"
   xmlns:rdf="http://www.w3.org/1999/02/22-rdf-syntax-ns#"
   xmlns:svg="http://www.w3.org/2000/svg"
   xmlns="http://www.w3.org/2000/svg"
   viewBox="0 0 81.186668 56.693333"
   height="56.693333"
   width="81.186668"
   xml:space="preserve"
   id="svg2"
   version="1.1"><metadata
     id="metadata8"><rdf:RDF><cc:Work
         rdf:about=""><dc:format>image/svg+xml</dc:format><dc:type
           rdf:resource="http://purl.org/dc/dcmitype/StillImage" /></cc:Work></rdf:RDF></metadata><defs
     id="defs6" /><g
     transform="matrix(1.3333333,0,0,-1.3333333,0,56.693333)"
     id="g10"><g
       transform="scale(0.1)"
       id="g12"><path
         id="path14"
         style="fill:#fff;fill-opacity:1;fill-rule:nonzero;stroke:none"
         d="M 75.4805,106.723 69.2617,87.9375 c -2.9062,1.3359 -5.7617,2.3555 -8.539,3.0313 -2.7969,0.6835 -5.5313,1.0351 -8.1797,1.0351 -7.1953,0 -13.0078,-2.0703 -17.4336,-6.1875 C 30.6914,81.6914 28.5,76.2891 28.5,69.5781 c 0,-5.8672 1.8164,-10.5429 5.4258,-13.9492 3.6406,-3.4375 8.539,-5.1562 14.707,-5.1562 2.4453,0 4.9453,0.3007 7.4961,0.8945 2.5547,0.6016 5.2031,1.5117 7.957,2.7461 L 60.9063,33.5234 C 56.7617,32.4414 52.8477,31.6328 49.1836,31.125 45.5,30.5977 41.9805,30.3477 38.625,30.3477 c -11.7969,0 -21.168,3.2812 -28.1406,9.8671 C 3.48828,46.8164 0,55.5742 0,66.543 c 0,13.5625 4.51953,24.5 13.5352,32.8125 9.0195,8.3125 20.9726,12.4725 35.8242,12.4725 4.4453,0 8.8125,-0.426 13.1601,-1.254 4.3516,-0.836 8.6641,-2.125 12.961,-3.851 M 139.563,76.2344 c 0,5.3906 -1.309,9.6562 -3.961,12.8437 -2.629,3.1797 -6.164,4.7696 -10.614,4.7696 -5.738,0 -10.636,-2.7539 -14.726,-8.2813 -4.098,-5.5351 -6.141,-12.2578 -6.141,-20.2148 0,-5.1758 1.391,-9.3985 4.176,-12.6836 2.801,-3.2852 6.383,-4.9219 10.781,-4.9219 5.656,0 10.508,2.7266 14.5,8.207 3.992,5.4883 5.985,12.2344 5.985,20.2813 M 126.531,111.68 c 12.606,0 22.481,-3.254 29.676,-9.774 7.203,-6.5154 10.816,-15.4607 10.816,-26.8513 0,-13.668 -4.625,-24.7031 -13.843,-33.0938 -9.219,-8.3867 -21.418,-12.582 -36.621,-12.582 -12.438,0 -22.2113,3.1836 -29.3598,9.5508 -7.1211,6.3711 -10.6836,15.0859 -10.6836,26.1172 0,14.2226 4.4961,25.5429 13.5157,33.9844 8.9921,8.4297 21.1637,12.6487 36.4997,12.6487 M 263.668,62.75 257.004,31.6836 h -27.078 l 8.129,39.0547 c 0.308,1.4844 0.508,2.875 0.656,4.1601 0.152,1.2657 0.23,2.4766 0.23,3.6211 0,3.6563 -0.863,6.4571 -2.601,8.4532 -1.715,2 -4.149,3.0156 -7.254,3.0156 -5.352,0 -9.852,-2.1055 -13.414,-6.3164 -3.586,-4.2266 -6.285,-10.6172 -8.102,-19.1602 l -6.949,-32.8281 h -27.23 l 16.644,78.6604 h 24.422 l -3.051,-14.0002 c 4.399,5.0272 9.094,8.8282 14.071,11.3792 4.976,2.539 10.183,3.8 15.609,3.8 8.105,0 14.379,-2.371 18.797,-7.144 4.445,-4.7384 6.672,-11.4454 6.672,-20.0821 0,-2.6211 -0.235,-5.7305 -0.711,-9.3164 -0.453,-3.6211 -1.184,-7.6797 -2.176,-12.2305 m 68.687,4.5273 c -0.988,0.0938 -2.023,0.1758 -3.082,0.2149 -1.062,0.0586 -2.628,0.0859 -4.699,0.0859 -7.199,0 -12.683,-1.0351 -16.472,-3.0859 -3.766,-2.0508 -5.657,-5.0274 -5.657,-8.9688 0,-2.6211 0.93,-4.75 2.774,-6.3593 1.847,-1.6368 4.25,-2.4532 7.226,-2.4532 4.977,0 9.297,1.8711 12.989,5.6329 3.683,3.7304 5.988,8.7109 6.921,14.9335 m 26.497,6.2305 -4.524,-22.125 c -0.984,-4.5469 -1.711,-8.2773 -2.172,-11.1875 -0.48,-2.9101 -0.812,-5.7578 -1.011,-8.5117 H 328.59 l 1.461,11.8437 c -3,-4.4375 -6.766,-7.8085 -11.317,-10.1093 -4.546,-2.293 -9.777,-3.4258 -15.683,-3.4258 -7.91,0 -14.219,2.1172 -18.973,6.3672 -4.719,4.2422 -7.098,9.8711 -7.098,16.8633 0,8.9218 4.02,15.8945 12.079,20.8711 8.027,4.9765 19.351,7.4765 33.894,7.4765 1.727,0 3.641,-0.0547 5.711,-0.1758 2.074,-0.1328 4.344,-0.3242 6.867,-0.5547 0.051,0.2813 0.106,0.625 0.129,0.9844 0.028,0.375 0.028,0.8828 0.028,1.5156 0,3.9961 -1.286,7.0274 -3.84,9.0704 -2.575,2.0429 -6.317,3.0507 -11.192,3.0507 -4.539,0 -8.933,-0.4765 -13.191,-1.457 -4.235,-0.9883 -8.328,-2.4805 -12.27,-4.4492 l 3.18,18.1833 c 4.297,1.543 8.57,2.68 12.836,3.461 4.269,0.758 8.637,1.141 13.059,1.141 11.418,0 20.312,-2.203 26.703,-6.617 6.39,-4.426 9.574,-10.4847 9.574,-18.2425 0,-1.7696 -0.156,-3.8438 -0.457,-6.2188 -0.277,-2.3711 -0.707,-4.9414 -1.238,-7.7539 m 34.558,71.8362 h 26.926 L 396.285,31.6836 h -27 z M 502.328,63.6602 h -55.879 c 0.508,-5.7305 2.379,-9.9766 5.641,-12.7032 3.258,-2.7539 8.031,-4.1211 14.348,-4.1211 4.296,0 8.691,0.5118 13.207,1.5157 4.5,1.0156 8.945,2.4961 13.289,4.4179 l -3.055,-19.2461 c -4.621,-1.4843 -9.375,-2.6015 -14.199,-3.3359 -4.825,-0.7344 -9.696,-1.1055 -14.571,-1.1055 -12.054,0 -21.574,3.2774 -28.574,9.8477 -6.996,6.5703 -10.508,15.4648 -10.508,26.7266 0,6.3164 1.266,12.5234 3.766,18.6914 2.531,6.1406 5.91,11.3164 10.148,15.5625 4.141,4.0668 9.149,7.0978 14.989,9.1448 5.851,2.039 12.425,3.078 19.726,3.078 10.762,0 19.016,-2.895 24.828,-8.742 5.789,-5.8051 8.692,-14.098 8.692,-24.848 0,-2.2227 -0.149,-4.5782 -0.457,-7.0782 -0.274,-2.4921 -0.758,-5.0976 -1.391,-7.8046 m -20.808,15.039 c 0.152,0.9805 0.25,1.7305 0.304,2.2422 0.043,0.5234 0.071,0.9844 0.071,1.3906 0,4.3164 -1.239,7.7461 -3.696,10.2774 -2.472,2.5039 -5.777,3.7656 -9.922,3.7656 -4.238,0 -7.976,-1.5664 -11.234,-4.707 -3.258,-3.125 -5.637,-7.4414 -7.105,-12.9688 z M 541.918,44.707 532.371,0 h -27.308 l 23.46,110.344 h 24.407 l -3.028,-13.7698 c 3.786,5.0548 8.082,8.8478 12.883,11.4178 4.77,2.555 9.981,3.836 15.61,3.836 9.32,0 16.742,-3.129 22.226,-9.387 5.508,-6.2652 8.262,-14.7574 8.262,-25.4605 0,-14.0782 -3.82,-25.4922 -11.469,-34.2657 -7.656,-8.7812 -17.559,-13.1835 -29.754,-13.1835 -5.715,0 -10.789,1.3203 -15.207,3.9179 -4.422,2.625 -7.941,6.3672 -10.535,11.2578 m 39.051,31.2305 c 0,4.7695 -1.211,8.5898 -3.664,11.3984 -2.453,2.7969 -5.707,4.211 -9.801,4.211 -5.535,0 -10.328,-2.5196 -14.399,-7.5508 -4.066,-5.0313 -6.089,-10.9883 -6.089,-17.9102 0,-5.0312 1.316,-9.0468 3.918,-12.0312 2.597,-2.9766 6.113,-4.4609 10.511,-4.4609 5.375,0 9.977,2.5742 13.793,7.6992 3.809,5.1328 5.731,11.3398 5.731,18.6445 M 125.184,342.121 243.82,409.695 c 61.621,34.52 138.121,9.473 167.735,-56.109 l -69.696,-40.129 c -3.605,24.356 -31.457,42.688 -58.511,28.055 l -178,-102.805 z M 480.398,272.285 362.48,203.965 C 301.277,168.73 224.426,191.984 194.652,258.855 l 69.403,40.625 c 3.949,-22.386 31.328,-41.289 59.16,-26.726 L 499.902,374.5 480.398,272.285" /></g></g></svg>